<svg width="80" height="80" viewBox="0 0 80 80" fill="none" xmlns="http://www.w3.org/2000/svg">
<path d="M39.7119 69.6924C39.8032 69.7304 39.9011 69.75 40 69.75C40.0989 69.75 40.1968 69.7304 40.2881 69.6924L57.0274 62.7256C59.3167 61.7775 61.273 60.1708 62.6479 58.1093C64.0228 56.0478 64.7544 53.6244 64.75 51.1465V10C64.75 9.8011 64.6709 9.61037 64.5303 9.46973C64.3897 9.32909 64.1989 9.25005 64 9.25H16C15.8011 9.25005 15.6104 9.32909 15.4697 9.46973C15.3291 9.61037 15.2501 9.8011 15.25 10V51.1465C15.2456 53.6244 15.9772 56.0478 17.3522 58.1093C18.7271 60.1708 20.6833 61.7775 22.9727 62.7256L39.7119 69.6924ZM16.75 51.1465V10.75H63.25V51.1465C63.2539 53.328 62.6098 55.4616 61.3993 57.2765C60.1889 59.0915 58.4667 60.506 56.4512 61.3408L40 68.1875L23.5489 61.3408C21.5333 60.506 19.8111 59.0915 18.6007 57.2765C17.3903 55.4616 16.7462 53.328 16.75 51.1465Z" fill="#00BCEB"/>
<path d="M28 52.75H52C52.1989 52.7499 52.3896 52.6709 52.5303 52.5303C52.6709 52.3896 52.7499 52.1989 52.75 52V46C52.7501 45.8606 52.7113 45.724 52.638 45.6055C52.5647 45.487 52.4597 45.3912 52.335 45.3291L48.75 43.5366V36.3106L52.5303 32.5303C52.6709 32.3896 52.7499 32.1989 52.75 32V22C52.7499 21.8011 52.6709 21.6104 52.5303 21.4697C52.3896 21.3291 52.1989 21.2501 52 21.25H48C47.8011 21.2501 47.6104 21.3291 47.4697 21.4697C47.3291 21.6104 47.2501 21.8011 47.25 22V25.25H44.75V22C44.7499 21.8011 44.6709 21.6104 44.5303 21.4697C44.3896 21.3291 44.1989 21.2501 44 21.25H36C35.8011 21.2501 35.6104 21.3291 35.4697 21.4697C35.3291 21.6104 35.2501 21.8011 35.25 22V25.25H32.75V22C32.7499 21.8011 32.6709 21.6104 32.5303 21.4697C32.3896 21.3291 32.1989 21.2501 32 21.25H28C27.8011 21.2501 27.6104 21.3291 27.4697 21.4697C27.3291 21.6104 27.2501 21.8011 27.25 22V32C27.2501 32.1989 27.3291 32.3896 27.4697 32.5303L31.25 36.3106V43.5366L27.665 45.3291C27.5403 45.3912 27.4353 45.487 27.362 45.6055C27.2887 45.724 27.2499 45.8606 27.25 46V52C27.2501 52.1989 27.3291 52.3896 27.4697 52.5303C27.6104 52.6709 27.8011 52.7499 28 52.75ZM28.75 46.4634L32.335 44.6709C32.4597 44.6088 32.5647 44.513 32.638 44.3945C32.7113 44.276 32.7501 44.1394 32.75 44V36C32.7499 35.8011 32.6709 35.6104 32.5303 35.4697L28.75 31.6894V22.75H31.25V26C31.2501 26.1989 31.3291 26.3896 31.4697 26.5303C31.6104 26.6709 31.8011 26.7499 32 26.75H36C36.1989 26.7499 36.3896 26.6709 36.5303 26.5303C36.6709 26.3896 36.7499 26.1989 36.75 26V22.75H43.25V26C43.2501 26.1989 43.3291 26.3896 43.4697 26.5303C43.6104 26.6709 43.8011 26.7499 44 26.75H48C48.1989 26.7499 48.3896 26.6709 48.5303 26.5303C48.6709 26.3896 48.7499 26.1989 48.75 26V22.75H51.25V31.6894L47.4697 35.4697C47.3291 35.6104 47.2501 35.8011 47.25 36V44C47.2499 44.1394 47.2887 44.276 47.362 44.3945C47.4353 44.513 47.5403 44.6088 47.665 44.6709L51.25 46.4634V51.25H28.75V46.4634Z" fill="#00BCEB"/>
</svg>
