<svg width="80" height="80" viewBox="0 0 80 80" fill="none" xmlns="http://www.w3.org/2000/svg">
<path d="M51.227 63.7124C50.7407 64.2015 50.1621 64.5892 49.5249 64.8531C48.8876 65.117 48.2044 65.2519 47.5146 65.25H32.8286C32.4673 65.249 32.1094 65.3197 31.7755 65.458C31.4417 65.5963 31.1386 65.7994 30.8838 66.0557L27.4698 69.4697L28.5303 70.5303L31.9444 67.1162C32.0602 66.9997 32.198 66.9074 32.3498 66.8445C32.5016 66.7817 32.6644 66.7495 32.8286 66.75H47.5146C48.4014 66.7525 49.2799 66.579 50.0992 66.2396C50.9184 65.9003 51.6623 65.4018 52.2876 64.773L66.5102 50.5503C67.1856 49.8734 67.5649 48.9562 67.5649 48C67.5649 47.0438 67.1856 46.1266 66.5102 45.4497C65.8436 44.7848 64.9405 44.4116 63.9989 44.4119C63.0574 44.4121 62.1545 44.7859 61.4882 45.4512L60.0714 46.875L59.4716 46.3067C58.8047 45.6728 57.9173 45.3233 56.9972 45.3321C56.0772 45.3409 55.1966 45.7074 54.542 46.354L47.6252 53.3132C47.419 53.2745 47.2098 53.2534 47 53.25H32.4853C31.5986 53.2476 30.7201 53.421 29.9008 53.7604C29.0816 54.0998 28.3377 54.5982 27.7124 55.227L13.4697 69.4697L14.5303 70.5303L28.773 56.2876C29.2594 55.7986 29.8379 55.4109 30.4752 55.1469C31.1124 54.883 31.7957 54.7481 32.4854 54.75H47C47.5965 54.7507 48.1685 54.9879 48.5903 55.4097C49.0121 55.8316 49.2493 56.4035 49.25 57C49.1994 57.5545 48.9495 58.0719 48.5465 58.4562L48.4927 58.5103L48.4939 58.5114C48.1265 58.9255 47.6167 59.1862 47.0659 59.2417L35.9995 59.25L36.0005 60.75L47.0664 60.7417C47.5533 60.7131 48.0297 60.5888 48.4685 60.3758C48.9072 60.1628 49.2997 59.8654 49.6233 59.5005L62.5503 46.5103C62.9352 46.1266 63.4565 45.9112 64 45.9112C64.5435 45.9112 65.0648 46.1266 65.4497 46.5103C65.8442 46.9057 66.0657 47.4415 66.0657 48C66.0657 48.5586 65.8442 49.0943 65.4497 49.4898L51.227 63.7124ZM50.6804 56.3118C50.4987 55.3433 49.9432 54.4852 49.1338 53.9231L55.5981 47.4194C55.9762 47.0474 56.4841 46.837 57.0145 46.8326C57.5449 46.8282 58.0563 47.0303 58.4404 47.396L59.0132 47.9384L50.6804 56.3118Z" fill="#00BCEB"/>
<path d="M40 19.6099C38.7362 19.6099 37.5007 19.9846 36.4498 20.6868C35.399 21.389 34.5799 22.387 34.0963 23.5546C33.6126 24.7222 33.4861 26.0071 33.7327 27.2467C33.9792 28.4862 34.5878 29.6248 35.4815 30.5185C36.3752 31.4122 37.5138 32.0208 38.7534 32.2674C39.9929 32.5139 41.2778 32.3874 42.4454 31.9037C43.6131 31.4201 44.6111 30.601 45.3132 29.5502C46.0154 28.4993 46.3901 27.2639 46.3901 26C46.3882 24.3058 45.7143 22.6816 44.5164 21.4836C43.3184 20.2857 41.6942 19.6118 40 19.6099ZM40 30.8901C39.0328 30.8901 38.0874 30.6033 37.2832 30.066C36.479 29.5287 35.8522 28.7649 35.4821 27.8714C35.112 26.9778 35.0151 25.9946 35.2038 25.046C35.3925 24.0974 35.8583 23.2261 36.5422 22.5422C37.2261 21.8583 38.0974 21.3925 39.046 21.2038C39.9946 21.0151 40.9778 21.112 41.8714 21.4821C42.7649 21.8522 43.5287 22.479 44.066 23.2832C44.6033 24.0874 44.8901 25.0328 44.8901 26C44.8886 27.2965 44.3729 28.5394 43.4562 29.4562C42.5394 30.3729 41.2965 30.8886 40 30.8901Z" fill="#00BCEB"/>
<path d="M55.3877 30.6733C55.8369 30.7284 56.2904 30.612 56.6576 30.3475C57.0248 30.0829 57.2787 29.6896 57.3687 29.2461C57.7676 27.1221 57.7716 24.9428 57.3804 22.8174C57.2971 22.3631 57.0454 21.9569 56.6756 21.6802C56.3058 21.4034 55.8452 21.2765 55.3858 21.3247C54.6206 21.3998 53.85 21.2529 53.1661 20.9016C52.4822 20.5502 51.914 20.0094 51.5294 19.3436C51.1447 18.6779 50.96 17.9155 50.9972 17.1475C51.0345 16.3796 51.2921 15.6386 51.7393 15.0132C52.0094 14.641 52.1297 14.1809 52.0762 13.7242C52.0228 13.2675 51.7995 12.8476 51.4507 12.5479C49.8277 11.142 47.9511 10.0588 45.9219 9.35646C45.488 9.20431 45.0127 9.22055 44.5905 9.40274C44.1683 9.58494 43.8301 9.91931 43.6431 10.3394C43.3253 11.0395 42.8125 11.6332 42.1661 12.0495C41.5197 12.4658 40.7671 12.6872 39.9983 12.6871C39.2294 12.6869 38.4769 12.4654 37.8306 12.0489C37.1844 11.6324 36.6717 11.0386 36.3541 10.3384C36.1664 9.91629 35.8261 9.58066 35.4015 9.39874C34.9768 9.21683 34.4991 9.20207 34.0641 9.35741C32.0278 10.0819 30.1424 11.1753 28.5024 12.583C28.1641 12.8832 27.951 13.2997 27.9056 13.7497C27.8601 14.1998 27.9857 14.6505 28.2573 15.0122C28.7053 15.6375 28.9637 16.3786 29.0014 17.1469C29.0392 17.9152 28.8547 18.6781 28.4702 19.3443C28.0856 20.0105 27.5172 20.5518 26.833 20.9034C26.1489 21.2549 25.3779 21.4019 24.6123 21.3267C24.1631 21.2717 23.7097 21.3881 23.3426 21.6526C22.9754 21.9172 22.7214 22.3104 22.6314 22.7539C22.2325 24.8779 22.2285 27.0572 22.6197 29.1826C22.7029 29.637 22.9546 30.0431 23.3244 30.3199C23.6942 30.5966 24.1549 30.7236 24.6143 30.6753C25.3795 30.6002 26.1501 30.7471 26.834 31.0985C27.5179 31.4498 28.0861 31.9906 28.4707 32.6564C28.8554 33.3221 29.0401 34.0845 29.0029 34.8525C28.9656 35.6204 28.708 36.3614 28.2608 36.9868C27.9907 37.359 27.8704 37.8191 27.9239 38.2758C27.9773 38.7325 28.2006 39.1524 28.5493 39.4522C30.1726 40.858 32.049 41.9413 34.0782 42.644C34.5121 42.7965 34.9875 42.78 35.4098 42.5978C35.8321 42.4155 36.1702 42.081 36.357 41.6606C36.6748 40.9606 37.1876 40.3669 37.834 39.9506C38.4804 39.5342 39.233 39.3129 40.0018 39.313C40.7707 39.3131 41.5232 39.5347 42.1695 39.9512C42.8157 40.3677 43.3283 40.9615 43.646 41.6616C43.8332 42.0842 44.1734 42.4203 44.5982 42.6023C45.023 42.7842 45.501 42.7987 45.936 42.6426C47.9723 41.9182 49.8576 40.8247 51.4976 39.417C51.836 39.1168 52.049 38.7003 52.0945 38.2503C52.1399 37.8002 52.0143 37.3495 51.7427 36.9878C51.2947 36.3625 51.0363 35.6214 50.9986 34.8531C50.9609 34.0848 51.1453 33.3219 51.5299 32.6557C51.9144 31.9895 52.4828 31.4482 53.167 31.0967C53.8512 30.7451 54.6222 30.5981 55.3877 30.6733ZM50.231 31.9058C49.7048 32.8218 49.4524 33.8696 49.5038 34.9248C49.5552 35.98 49.9082 36.9983 50.521 37.8589C50.5713 37.9172 50.599 37.9916 50.599 38.0686C50.599 38.1456 50.5713 38.22 50.521 38.2783C49.0205 39.5665 47.2954 40.5669 45.4321 41.2295C45.3509 41.259 45.2614 41.2557 45.1827 41.2201C45.1039 41.1845 45.0422 41.1195 45.0107 41.0391C44.5737 40.0773 43.869 39.2616 42.9809 38.6895C42.0927 38.1174 41.0586 37.8132 40.0022 37.813C38.9457 37.8128 37.9116 38.1168 37.0233 38.6886C36.1349 39.2605 35.43 40.0759 34.9927 41.0376C34.961 41.1172 34.8997 41.1815 34.8218 41.2171C34.7438 41.2526 34.6551 41.2567 34.5742 41.2285C32.7214 40.5878 31.0082 39.5986 29.5269 38.3145C29.4618 38.2586 29.4208 38.1797 29.4126 38.0943C29.4044 38.0089 29.4296 37.9237 29.4829 37.8565C30.0968 36.9968 30.4502 35.9785 30.501 34.9234C30.5518 33.8682 30.2978 32.8207 29.7693 31.906C29.2409 30.9913 28.4603 30.2481 27.5208 29.7651C26.5813 29.2821 25.5226 29.0797 24.4712 29.1821C24.3856 29.1957 24.2981 29.1749 24.2278 29.1244C24.1574 29.0738 24.1097 28.9976 24.0952 28.9121C23.7372 26.9674 23.7408 24.9733 24.1059 23.0298C24.1308 22.9569 24.1812 22.8954 24.248 22.8568C24.3147 22.8181 24.3931 22.805 24.4687 22.8198C25.5207 22.9225 26.5799 22.7201 27.5199 22.2367C28.4598 21.7534 29.2407 21.0095 29.7691 20.0942C30.2976 19.1788 30.5512 18.1307 30.4998 17.075C30.4483 16.0193 30.094 15.0008 29.479 14.1411C29.4287 14.0828 29.401 14.0084 29.401 13.9314C29.401 13.8544 29.4287 13.78 29.479 13.7217C30.9795 12.4335 32.7046 11.4331 34.5679 10.7705C34.6491 10.7411 34.7385 10.7446 34.8172 10.7802C34.8959 10.8157 34.9577 10.8806 34.9893 10.9609C35.4263 11.9228 36.131 12.7384 37.0191 13.3105C37.9073 13.8826 38.9414 14.1869 39.9978 14.187C41.0543 14.1872 42.0884 13.8832 42.9768 13.3114C43.8651 12.7396 44.57 11.9241 45.0073 10.9624C45.0388 10.8827 45.1001 10.8182 45.1781 10.7827C45.2562 10.7472 45.345 10.7434 45.4258 10.772C47.2787 11.4123 48.992 12.4013 50.4732 13.6856C50.5383 13.7414 50.5792 13.8203 50.5874 13.9057C50.5956 13.9911 50.5704 14.0763 50.5171 14.1436C49.9033 15.0033 49.5498 16.0215 49.499 17.0767C49.4483 18.1318 49.7023 19.1793 50.2307 20.094C50.7592 21.0087 51.5398 21.7519 52.4793 22.2349C53.4188 22.7179 54.4775 22.9203 55.5289 22.8179C55.6144 22.805 55.7015 22.826 55.7718 22.8764C55.842 22.9268 55.8898 23.0027 55.9049 23.0879C56.2629 25.0326 56.2593 27.0268 55.8941 28.9702C55.8689 29.0429 55.8183 29.104 55.7517 29.1426C55.6851 29.1811 55.6069 29.1945 55.5313 29.1802C54.4795 29.0782 53.4205 29.2809 52.4807 29.7642C51.5409 30.2475 50.7599 30.9909 50.231 31.9058Z" fill="#00BCEB"/>
</svg>
