<svg width="80" height="80" viewBox="0 0 80 80" fill="none" xmlns="http://www.w3.org/2000/svg">
<path d="M61.667 50.75H58V49.25H61.667C63.6782 49.25 65.607 48.451 67.0292 47.0289C68.4513 45.6067 69.2503 43.6779 69.2503 41.6667C69.2503 39.6555 68.4513 37.7267 67.0292 36.3045C65.607 34.8824 63.6782 34.0835 61.667 34.0835C59.9902 34.0885 58.3636 34.6563 57.0479 35.6958C56.9416 35.7781 56.8151 35.8304 56.6817 35.8472C56.5483 35.864 56.4129 35.8446 56.2895 35.7911C56.1661 35.7376 56.0594 35.652 55.9805 35.5431C55.9016 35.4343 55.8533 35.3062 55.8409 35.1723C55.5042 31.5725 53.9509 28.1948 51.4371 25.5961C48.9233 22.9974 45.599 21.3329 42.0123 20.8769C38.4256 20.421 34.7906 21.2008 31.7065 23.0879C28.6225 24.975 26.2735 27.8566 25.0469 31.2578C25.0113 31.3565 24.9553 31.4467 24.8826 31.5224C24.8098 31.5981 24.722 31.6577 24.6248 31.6973C24.5275 31.7369 24.4231 31.7556 24.3181 31.7523C24.2132 31.7489 24.1101 31.7235 24.0157 31.6777C22.765 31.0672 21.3917 30.75 20 30.75C17.5467 30.75 15.194 31.7245 13.4593 33.4592C11.7246 35.1939 10.75 37.5467 10.75 40C10.75 42.4532 11.7246 44.806 13.4593 46.5407C15.194 48.2754 17.5467 49.25 20 49.25H22V50.75H20C17.1489 50.75 14.4146 49.6174 12.3986 47.6014C10.3826 45.5853 9.25 42.851 9.25 40C9.25 37.1489 10.3826 34.4146 12.3986 32.3986C14.4146 30.3825 17.1489 29.25 20 29.25C21.3444 29.2488 22.6767 29.5037 23.9258 30.001C25.3714 26.5065 27.9159 23.5779 31.1742 21.6584C34.4326 19.7389 38.2275 18.933 41.9848 19.3625C45.742 19.7921 49.2571 21.4337 51.9982 24.039C54.7392 26.6444 56.5571 30.0716 57.1768 33.8022C58.5387 33.0043 60.0886 32.5836 61.667 32.5835C64.076 32.5835 66.3864 33.5404 68.0898 35.2439C69.7933 36.9473 70.7503 39.2577 70.7503 41.6667C70.7503 44.0757 69.7933 46.3861 68.0898 48.0895C66.3864 49.793 64.076 50.75 61.667 50.75Z" fill="#00BCEB"/>
<path d="M34 60.75H33.7773C33.1072 60.7492 32.4648 60.4826 31.9909 60.0087C31.5171 59.5348 31.2507 58.8923 31.25 58.2222V45.7778C31.2507 45.1077 31.5171 44.4652 31.9909 43.9913C32.4648 43.5174 33.1072 43.2508 33.7773 43.25H46.2227C46.8928 43.2508 47.5352 43.5174 48.0091 43.9913C48.4829 44.4652 48.7493 45.1077 48.75 45.7778V46H47.25V45.7778C47.2498 45.5054 47.1415 45.2442 46.9489 45.0515C46.7563 44.8588 46.4951 44.7504 46.2227 44.75H33.7773C33.5049 44.7504 33.2437 44.8588 33.0511 45.0515C32.8585 45.2442 32.7502 45.5054 32.75 45.7778V58.2222C32.7502 58.4946 32.8585 58.7558 33.0511 58.9485C33.2437 59.1412 33.5049 59.2496 33.7773 59.25H34V60.75Z" fill="#00BCEB"/>
<path d="M28 54.6943H27.7773C27.1081 54.6943 26.4661 54.4288 25.9923 53.9561C25.5185 53.4834 25.2516 52.8421 25.25 52.1729V39.7715C25.2516 39.1022 25.5185 38.4609 25.9923 37.9882C26.4661 37.5155 27.1081 37.25 27.7773 37.25H40.2227C40.8919 37.25 41.5339 37.5155 42.0077 37.9882C42.4815 38.4609 42.7484 39.1022 42.75 39.7715V40H41.25V39.7715C41.2489 39.4999 41.1402 39.2398 40.9476 39.0483C40.755 38.8568 40.4943 38.7495 40.2227 38.75H27.7773C27.5057 38.7495 27.245 38.8568 27.0524 39.0483C26.8598 39.2398 26.7511 39.4999 26.75 39.7715V52.1729C26.7511 52.4445 26.8598 52.7045 27.0524 52.896C27.245 53.0876 27.5057 53.1948 27.7773 53.1943H28V54.6943Z" fill="#00BCEB"/>
<path d="M52.0205 66.75H39.9795C39.2559 66.7492 38.5622 66.4615 38.0505 65.9499C37.5388 65.4383 37.2509 64.7446 37.25 64.021V51.979C37.2509 51.2554 37.5388 50.5617 38.0505 50.0501C38.5622 49.5385 39.2559 49.2508 39.9795 49.25H52.0205C52.7441 49.2508 53.4378 49.5385 53.9495 50.0501C54.4612 50.5617 54.7491 51.2554 54.75 51.979V64.021C54.7491 64.7446 54.4612 65.4383 53.9495 65.9499C53.4378 66.4615 52.7441 66.7492 52.0205 66.75ZM39.9795 50.75C39.6536 50.7503 39.3411 50.8799 39.1107 51.1103C38.8802 51.3407 38.7505 51.6531 38.75 51.979V64.021C38.7505 64.3469 38.8802 64.6593 39.1106 64.8897C39.3411 65.1201 39.6536 65.2497 39.9795 65.25H52.0205C52.3464 65.2497 52.6589 65.1201 52.8893 64.8897C53.1198 64.6593 53.2495 64.3469 53.25 64.021V51.979C53.2495 51.6531 53.1198 51.3407 52.8894 51.1103C52.6589 50.8799 52.3464 50.7503 52.0205 50.75H39.9795Z" fill="#00BCEB"/>
</svg>
