<svg viewBox="0 0 648 91" fill="none" xmlns="http://www.w3.org/2000/svg">
<g clip-path="url(#clip0_108_44)">
<path d="M123.47 62.78C120.2 48.82 106.45 3.99 65.1898 2.08C64.2898 2.03 63.3798 1.99 62.4698 1.99C61.7998 1.99 61.1398 2.01 60.4798 2.04V1.99C29.8098 1.98 9.2798 24.96 1.8698 34.84C-0.300202 37.73 -0.610202 41.66 1.0698 44.85C6.7498 55.62 27.8198 90.76 60.4798 90.76C60.9198 90.76 61.3498 90.75 61.7898 90.74C62.0198 90.74 62.2398 90.76 62.4698 90.76C63.5798 90.76 64.6898 90.7 65.7798 90.62C92.7398 89.25 112.22 77.78 119.63 72.67C122.85 70.45 124.35 66.57 123.47 62.78ZM62.4698 85.75C40.7198 85.75 23.0898 68.12 23.0898 46.37C23.0898 24.62 40.7198 6.99 62.4698 6.99C84.2198 6.99 101.85 24.62 101.85 46.37C101.85 68.12 84.2198 85.75 62.4698 85.75ZM80.7798 33.07V26.94C76.4798 23.44 70.9898 21.34 65.0098 21.34C51.1898 21.34 39.9798 32.55 39.9798 46.37C39.9798 60.19 51.1898 71.4 65.0098 71.4C70.9898 71.4 76.4698 69.3 80.7798 65.8V59.67C86.4298 57.89 90.5398 52.6 90.5398 46.37C90.5398 40.14 86.4298 34.85 80.7798 33.07ZM76.6998 55.6C76.6998 55.6 76.6698 55.6 76.6498 55.6C76.6298 55.6 76.6198 55.6 76.5998 55.6C71.5098 55.6 67.3698 51.46 67.3698 46.37C67.3698 41.28 71.5098 37.14 76.5998 37.14C76.6198 37.14 76.6298 37.14 76.6498 37.14C76.6698 37.14 76.6798 37.14 76.6998 37.14C81.7898 37.14 85.9298 41.28 85.9298 46.37C85.9298 51.46 81.7898 55.6 76.6998 55.6Z" fill="white"/>
<path d="M144.61 45.62C144.61 36.16 147.42 29.02 153.04 24.2C157.54 20.3 163.22 18.35 170.1 18.35C178.1 18.35 184.38 20.9 188.94 25.99C193.3 30.75 195.49 37.3 195.49 45.63C195.49 54.95 192.75 62.06 187.26 66.95C182.76 70.92 177.01 72.9 170 72.9C162 72.9 155.68 70.26 151.06 64.97C146.76 60.14 144.61 53.7 144.61 45.63V45.62ZM154.53 45.62C154.53 52.23 156.22 57.29 159.59 60.79C162.37 63.7 165.9 65.15 170.2 65.15C175.22 65.15 179.09 63.27 181.8 59.5C184.31 56.06 185.57 51.43 185.57 45.61C185.57 38.87 183.92 33.77 180.61 30.34C177.9 27.5 174.39 26.08 170.1 26.08C165.14 26.08 161.27 27.96 158.5 31.73C155.85 35.17 154.53 39.8 154.53 45.62Z" fill="white"/>
<path d="M206.4 19.84H214.24L215.73 26.58C219.96 21.09 225.78 18.35 233.19 18.35C240.6 18.35 246.35 21 250.45 26.28C254.09 31.04 255.91 37.36 255.91 45.22C255.91 54.54 253.43 61.68 248.47 66.64C244.3 70.81 238.98 72.89 232.5 72.89C225.16 72.89 219.64 70.18 215.94 64.76V89.26H206.42V19.84H206.4ZM245.97 45.03C245.97 38.55 244.35 33.69 241.11 30.45C238.53 27.81 235.16 26.48 230.99 26.48C226.16 26.48 222.33 28.23 219.48 31.74C216.77 35.11 215.41 39.54 215.41 45.03C215.41 51.64 217.03 56.7 220.27 60.2C222.98 63.24 226.55 64.76 230.98 64.76C235.94 64.76 239.71 62.94 242.29 59.3C244.74 55.93 245.96 51.17 245.96 45.02L245.97 45.03Z" fill="white"/>
<path d="M301.91 56.53H312.22C310.76 61.75 307.89 65.85 303.59 68.83C299.56 71.54 294.73 72.9 289.11 72.9C280.98 72.9 274.63 70.32 270.07 65.16C265.9 60.33 263.82 53.82 263.82 45.62C263.82 36.3 266.46 29.22 271.75 24.39C276.11 20.36 281.73 18.34 288.61 18.34C296.68 18.34 302.76 20.95 306.86 26.18C310.83 31.21 312.81 38.38 312.81 47.7H273.53C273.93 53.78 275.78 58.31 279.08 61.29C281.79 63.67 285.23 64.86 289.39 64.86C292.63 64.86 295.44 63.97 297.82 62.18C299.8 60.66 301.16 58.78 301.89 56.53H301.91ZM288.82 25.98C284.59 25.98 281.18 27.3 278.6 29.95C276.15 32.4 274.6 35.8 273.94 40.17H303.1C302.77 35.21 301.12 31.51 298.14 29.06C295.76 27.01 292.65 25.99 288.82 25.99V25.98Z" fill="white"/>
<path d="M333.75 71.41H324.23V19.84H332.07L333.16 26.39C336.99 21.03 342.22 18.36 348.83 18.36C354.91 18.36 359.57 20.24 362.81 24.01C365.65 27.38 367.07 31.98 367.07 37.8V71.42H357.55V37.9C357.55 30.3 353.88 26.49 346.54 26.49C342.7 26.49 339.56 27.81 337.12 30.46C334.87 32.84 333.75 35.88 333.75 39.58V71.42V71.41Z" fill="white"/>
<path d="M414.08 54.85H424.49C423.7 60.4 421.08 64.87 416.65 68.24C412.62 71.35 407.69 72.9 401.87 72.9C394.27 72.9 388.22 70.29 383.72 65.06C379.55 60.23 377.47 53.89 377.47 46.02C377.47 36.9 379.98 29.82 385.01 24.8C389.31 20.5 394.89 18.35 401.77 18.35C408.12 18.35 413.34 20.04 417.44 23.41C421.08 26.39 423.29 30.29 424.09 35.11H413.58C412.92 32.33 411.58 30.19 409.56 28.66C407.54 27.14 405.01 26.38 401.97 26.38C397.27 26.38 393.67 28.23 391.16 31.93C388.78 35.37 387.59 40.16 387.59 46.31C387.59 52.46 389.18 57.58 392.35 60.89C394.86 63.54 398.1 64.86 402.07 64.86C405.51 64.86 408.32 63.87 410.5 61.88C412.42 60.16 413.61 57.81 414.07 54.84L414.08 54.85Z" fill="white"/>
<path d="M444.93 0V71.41H435.41V0H444.93Z" fill="white"/>
<path d="M466.94 34.22H456.82C457.35 29.06 459.8 25.06 464.16 22.22C468.06 19.64 472.99 18.35 478.94 18.35C486.01 18.35 491.44 20.2 495.21 23.9C498.38 27.07 499.97 31.17 499.97 36.2V71.41H492.14L490.95 64.37C486.92 70.06 481.16 72.9 473.69 72.9C467.8 72.9 463.21 71.31 459.9 68.14C457.19 65.5 455.83 62.16 455.83 58.12C455.83 53.03 457.58 49.09 461.09 46.32C464.2 43.87 468.96 42.09 475.37 40.96L490.45 38.38V35.8C490.45 32.43 489.29 29.88 486.98 28.16C484.93 26.64 482.12 25.88 478.55 25.88C471.54 25.88 467.67 28.66 466.95 34.21L466.94 34.22ZM475.97 64.87C480 64.87 483.51 63.55 486.48 60.9C489.12 58.45 490.45 55.64 490.45 52.47V45.82L477.66 48.1C472.96 48.89 469.76 50.12 468.04 51.77C466.65 53.09 465.96 54.88 465.96 57.13C465.96 59.64 466.82 61.56 468.54 62.88C470.26 64.2 472.74 64.86 475.98 64.86L475.97 64.87Z" fill="white"/>
<path d="M522.88 71.41H513.36V19.84H521.2L522.49 27.48C525.4 21.4 529.76 18.36 535.58 18.36C537.5 18.36 539.38 18.59 541.23 19.05V28.57C538.98 27.98 536.96 27.68 535.18 27.68C531.34 27.68 528.34 29.23 526.15 32.34C523.97 35.45 522.88 39.85 522.88 45.53V71.42V71.41Z" fill="white"/>
<path d="M558.78 11.21H548.07V0H558.78V11.21ZM558.19 71.41H548.67V19.84H558.19V71.41Z" fill="white"/>
<path d="M595.08 63.77V71.9C592.63 72.56 590.29 72.89 588.04 72.89C583.28 72.89 579.71 71.4 577.33 68.43C575.28 65.98 574.26 62.71 574.26 58.61V27.96H566.62V19.83H574.26L574.86 7.43H583.79V19.83H594.9V27.96H583.79V58.81C583.79 62.65 585.61 64.56 589.25 64.56C590.97 64.56 592.92 64.3 595.1 63.77H595.08Z" fill="white"/>
<path d="M647.05 19.84L629.1 72.11C626.72 79.05 624.44 83.78 622.26 86.29C619.68 89.27 616.34 90.75 612.24 90.75C610.52 90.75 608.47 90.45 606.09 89.86V82.12C607.94 82.58 609.59 82.81 611.05 82.81C613.1 82.81 614.69 82.1 615.81 80.68C616.93 79.26 618.35 76.17 620.07 71.41H617L598.06 19.84H608.37L622.95 63.68L637.53 19.84H647.05Z" fill="white"/>
</g>
<defs>
<clipPath id="clip0_108_44">
<rect width="647.05" height="90.75" fill="white"/>
</clipPath>
</defs>
</svg>
