<?xml version="1.0" encoding="UTF-8" standalone="no"?>
<svg
   viewBox="0 0 202.911 50"
   fill="none"
   version="1.1"
   id="svg93"
   sodipodi:docname="panoptica-logo-website21-1-3@2x-2.svg"
   inkscape:version="1.2.2 (b0a8486, 2022-12-01)"
   xmlns:inkscape="http://www.inkscape.org/namespaces/inkscape"
   xmlns:sodipodi="http://sodipodi.sourceforge.net/DTD/sodipodi-0.dtd"
   xmlns="http://www.w3.org/2000/svg"
   xmlns:svg="http://www.w3.org/2000/svg">
  <sodipodi:namedview
     id="namedview95"
     pagecolor="#505050"
     bordercolor="#ffffff"
     borderopacity="1"
     inkscape:showpageshadow="0"
     inkscape:pageopacity="0"
     inkscape:pagecheckerboard="1"
     inkscape:deskcolor="#505050"
     showgrid="false"
     inkscape:zoom="4.466752"
     inkscape:cx="124.25136"
     inkscape:cy="3.0223303"
     inkscape:window-width="1792"
     inkscape:window-height="1009"
     inkscape:window-x="0"
     inkscape:window-y="25"
     inkscape:window-maximized="1"
     inkscape:current-layer="g86" />
  <g
     clip-path="url(#clip0_458_6537)"
     id="g86">
    <path
       id="path2"
       style="fill:#ffffff;fill-opacity:1"
       d="M 19.382812 0 C 19.250313 0 19.118459 0.020207161 19.005859 0.056640625 L 0.83203125 6.1542969 C 0.35177173 6.3165867 7.4014794e-17 6.8063368 0 7.3164062 L 0 30.242188 C 0 34.826183 2.7348805 38.367365 6.3417969 41.351562 C 8.7464045 43.342161 11.578362 45.160455 14.443359 47.001953 C 15.870958 47.919452 17.305426 48.841123 18.703125 49.794922 C 18.901925 49.930722 19.144313 50 19.382812 50 C 19.624612 50 19.8638 49.930722 20.0625 49.794922 C 21.460199 48.841123 22.892814 47.919452 24.320312 47.001953 C 27.18531 45.160455 30.017277 43.342161 32.421875 41.351562 C 33.079362 40.807086 33.70833 40.24464 34.296875 39.660156 C 28.096168 39.663083 19.938189 39.666016 19.863281 39.666016 L 19.863281 39.664062 C 16.349085 39.664062 13.490234 36.803765 13.490234 33.292969 C 13.490234 30.633271 15.149959 28.26529 17.597656 27.337891 C 18.243456 23.817094 21.304576 21.230469 24.951172 21.230469 C 25.573871 21.230469 26.189057 21.306585 26.785156 21.458984 C 28.255755 18.355487 31.412088 16.328125 34.896484 16.328125 C 36.282921 16.328125 37.592082 16.654727 38.765625 17.21875 L 38.765625 7.3164062 C 38.765625 6.8063368 38.413793 6.3132767 37.933594 6.1542969 L 19.763672 0.056640625 C 19.651072 0.020207161 19.519219 0.0033121367 19.386719 0 L 19.382812 0 z M 34.900391 18.197266 C 31.899594 18.197266 29.210024 20.095231 28.203125 22.923828 L 27.880859 23.828125 L 26.984375 23.480469 C 26.335176 23.228769 25.648724 23.099609 24.953125 23.099609 L 24.951172 23.099609 C 22.059675 23.099609 19.65724 25.265628 19.369141 28.140625 L 19.306641 28.779297 L 18.683594 28.949219 C 16.726096 29.479218 15.357422 31.262571 15.357422 33.292969 C 15.357422 35.777066 17.379184 37.798828 19.863281 37.798828 C 19.942618 37.798828 29.912328 37.793731 35.966797 37.791016 C 37.674897 35.608168 38.765625 33.132599 38.765625 30.242188 L 38.765625 19.347656 C 37.65198 18.622578 36.326259 18.197266 34.900391 18.197266 z " />
    <path
       d="m 47.3102,32.1749 c 0,-2.865 -1.8416,-5.2994 -4.4052,-6.1837 0.0199,-0.2253 0.0299,-0.4538 0.0299,-0.6857 0,-4.4415 -3.6003,-8.0418 -8.0419,-8.0418 -3.4943,0 -6.4686,2.2324 -7.5782,5.3458 -0.7353,-0.2849 -1.5335,-0.4439 -2.3715,-0.4439 -3.3883,0 -6.1771,2.5769 -6.5116,5.8791 -2.3119,0.626 -4.0176,2.7358 -4.0176,5.2497 0,3.0041 2.4344,5.4385 5.4385,5.4385 0.1093,0 21.0619,-0.0099 21.0619,-0.0099 v -0.0066 c 3.5439,-0.0828 6.3891,-2.9776 6.3891,-6.5382 z"
       fill="#ffffff"
       id="path4" />
    <path
       d="m 166.396,11.02412 c 0,1.50702 -1.222,2.7292 -2.729,2.7292 -1.507,0 -2.729,-1.22218 -2.729,-2.7292 0,-1.50702 1.222,-2.729198 2.729,-2.729198 1.507,0 2.729,1.222178 2.729,2.729198 z"
       fill="#0f294f"
       id="path8"
       style="fill:#ffffff;fill-opacity:1" />
    <path
       d="m 66.6629,24.2128 c 0,-2.0635 -0.4869,-3.6069 -1.4639,-4.6271 -0.7784,-0.7982 -1.8085,-1.199 -3.0969,-1.199 -1.4871,0 -2.6629,0.5432 -3.5274,1.6296 -0.7982,1.0433 -1.199,2.4311 -1.199,4.16 0,2.1761 0.4869,3.7957 1.464,4.8589 0.8214,0.8877 1.8846,1.3315 3.1962,1.3315 1.5302,0 2.6961,-0.5664 3.4943,-1.6991 0.7552,-1.0665 1.1327,-2.5504 1.1327,-4.4615 z M 53.5469,15.72376 H 56.71 l 0.6988,2.12971 c 1.3977,-1.75212 3.2956,-2.62984 5.6903,-2.62984 2.3946,0 4.4151,0.87772 5.7929,2.62984 1.242,1.59643 1.8647,3.70623 1.8647,6.32283 0,3.13 -0.8545,5.5379 -2.5636,7.2238 -1.4209,1.4209 -3.2293,2.1297 -5.4252,2.1297 -2.196,0 -3.9614,-0.8115 -5.2266,-2.4311 v 7.9226 h -3.9944 z"
       fill="#0f294f"
       id="path10"
       style="fill:#ffffff;fill-opacity:1" />
    <path
       d="m 84.3869,24.5771 -3.7626,0.6657 c -1.2884,0.2451 -2.2092,0.583 -2.7623,1.0169 -0.5532,0.4339 -0.8314,1.0367 -0.8314,1.815 0,1.6197 0.987,2.4311 2.9611,2.4311 1.2884,0 2.3748,-0.4206 3.2624,-1.2652 0.7552,-0.732 1.1328,-1.5865 1.1328,-2.5636 V 24.5804 Z M 77.395,20.6158 h -4.1601 c 0.2882,-1.7985 1.1858,-3.17304 2.6961,-4.12693 1.3547,-0.8446 3.0505,-1.26524 5.0941,-1.26524 2.4642,0 4.3488,0.63262 5.6571,1.89786 1.1327,1.08641 1.6991,2.49731 1.6991,4.22631 V 33.0297 H 85.1851 L 84.685,30.9 c -1.3547,1.7521 -3.2724,2.6298 -5.7598,2.6298 -1.9741,0 -3.5076,-0.5332 -4.594,-1.5964 -0.9539,-0.9308 -1.4308,-2.1198 -1.4308,-3.5606 0,-1.6196 0.5896,-2.8849 1.7654,-3.7957 1.0632,-0.8446 2.7192,-1.454 4.9582,-1.8316 l 4.7596,-0.7982 v -0.8314 c 0,-1.0433 -0.3445,-1.8183 -1.0334,-2.3284 -0.5995,-0.467 -1.4209,-0.6989 -2.4643,-0.6989 -2.0634,0 -3.2293,0.8446 -3.4943,2.5305 z"
       fill="#0f294f"
       id="path12"
       style="fill:#ffffff;fill-opacity:1" />
    <path
       d="M 96.0804,33.033 H 92.0859 V 15.72376 h 3.2956 l 0.4339,2.06347 c 1.2652,-1.70907 3.0174,-2.5636 5.2596,-2.5636 2.087,0 3.683,0.64256 4.793,1.93098 0.977,1.13279 1.464,2.67289 1.464,4.62709 V 33.033 h -3.995 V 21.881 c 0,-2.3748 -1.099,-3.5605 -3.295,-3.5605 -1.1993,0 -2.1764,0.4206 -2.9282,1.2652 -0.689,0.7784 -1.0334,1.7521 -1.0334,2.9279 z"
       fill="#0f294f"
       id="path14"
       style="fill:#ffffff;fill-opacity:1" />
    <path
       d="m 118.842,30.5688 c 1.576,0 2.752,-0.5764 3.527,-1.7323 0.732,-1.0433 1.1,-2.5404 1.1,-4.4946 0,-2.2191 -0.487,-3.8487 -1.464,-4.892 -0.779,-0.8446 -1.842,-1.2652 -3.196,-1.2652 -1.554,0 -2.73,0.5664 -3.528,1.6991 -0.755,1.0433 -1.133,2.5305 -1.133,4.4615 0,2.1959 0.487,3.8288 1.464,4.892 0.822,0.8876 1.898,1.3315 3.23,1.3315 z m -8.821,-6.2235 c 0,-3.1499 0.931,-5.5379 2.796,-7.15757 1.53,-1.30829 3.527,-1.9641 5.992,-1.9641 2.861,0 5.07,0.86447 6.624,2.59672 1.444,1.57655 2.163,3.74935 2.163,6.52495 0,3.1498 -0.911,5.5378 -2.73,7.1575 -1.53,1.3546 -3.55,2.0303 -6.057,2.0303 -2.842,0 -5.048,-0.8876 -6.625,-2.6629 -1.444,-1.6197 -2.163,-3.7957 -2.163,-6.5249 z"
       fill="#0f294f"
       id="path16"
       style="fill:#ffffff;fill-opacity:1" />
    <path
       d="m 143.415,24.2128 c 0,-2.0635 -0.49,-3.6069 -1.464,-4.6271 -0.778,-0.7982 -1.809,-1.199 -3.097,-1.199 -1.487,0 -2.663,0.5432 -3.527,1.6296 -0.799,1.0433 -1.199,2.4311 -1.199,4.16 0,2.1761 0.487,3.7957 1.464,4.8589 0.821,0.8877 1.884,1.3315 3.196,1.3315 1.53,0 2.696,-0.5664 3.494,-1.6991 0.755,-1.0665 1.133,-2.5504 1.133,-4.4615 z m -13.116,-8.48904 h 3.163 l 0.699,2.12971 c 1.398,-1.75212 3.295,-2.62984 5.69,-2.62984 2.395,0 4.415,0.87772 5.793,2.62984 1.242,1.59643 1.865,3.70623 1.865,6.32283 0,3.13 -0.855,5.5379 -2.564,7.2238 -1.421,1.4209 -3.229,2.1297 -5.425,2.1297 -2.196,0 -3.962,-0.8115 -5.227,-2.4311 v 7.9226 h -3.994 z"
       fill="#0f294f"
       id="path18"
       style="fill:#ffffff;fill-opacity:1" />
    <path
       d="m 158.647,30.1015 v 3.0306 c -0.931,0.265 -1.818,0.4008 -2.663,0.4008 -1.709,0 -3.008,-0.5101 -3.895,-1.5302 -0.755,-0.8645 -1.133,-2.0304 -1.133,-3.4943 v -9.7212 h -2.597 v -3.06368 h 2.597 l 0.265,-4.16004 h 3.726 v 4.16004 h 3.663 v 3.06368 h -3.663 v 9.8536 c 0,1.1527 0.59,1.7323 1.766,1.7323 0.51,0 1.152,-0.0894 1.931,-0.265 z"
       fill="#0f294f"
       id="path20"
       style="fill:#ffffff;fill-opacity:1" />
    <path
       d="m 165.596,33.0329 h -3.994 V 15.72363 h 3.994 z"
       fill="#0f294f"
       id="path22"
       style="fill:#ffffff;fill-opacity:1" />
    <path
       d="m 180.943,27.4057 h 4.26 c -0.335,1.9309 -1.256,3.4512 -2.763,4.5608 -1.421,1.0433 -3.173,1.5633 -5.259,1.5633 -2.753,0 -4.883,-0.8777 -6.393,-2.6298 -1.355,-1.5766 -2.03,-3.6964 -2.03,-6.356 0,-3.1068 0.864,-5.4915 2.597,-7.15754 1.51,-1.44078 3.461,-2.16283 5.859,-2.16283 2.242,0 4.094,0.57631 5.557,1.73225 1.286,1.02014 2.074,2.34172 2.365,3.96132 h -4.329 c -0.198,-0.8214 -0.609,-1.4706 -1.232,-1.9475 -0.622,-0.477 -1.374,-0.7155 -2.262,-0.7155 -1.444,0 -2.54,0.5763 -3.296,1.7323 -0.708,1.0864 -1.066,2.6398 -1.066,4.6602 0,2.0204 0.477,3.5837 1.431,4.627 0.755,0.8214 1.709,1.2321 2.862,1.2321 0.977,0 1.781,-0.2649 2.414,-0.7982 0.633,-0.5333 1.06,-1.2984 1.282,-2.2953 z"
       fill="#0f294f"
       id="path24"
       style="fill:#ffffff;fill-opacity:1" />
    <path
       d="m 198.916,24.5771 -3.762,0.6657 c -1.289,0.2451 -2.21,0.583 -2.763,1.0169 -0.553,0.4339 -0.831,1.0367 -0.831,1.815 0,1.6197 0.987,2.4311 2.961,2.4311 1.285,0 2.375,-0.4206 3.262,-1.2652 0.756,-0.732 1.133,-1.5865 1.133,-2.5636 v -2.0966 z m -6.988,-3.9613 h -4.16 c 0.288,-1.7985 1.185,-3.17304 2.696,-4.12693 1.354,-0.8446 3.05,-1.26524 5.094,-1.26524 2.464,0 4.348,0.63262 5.657,1.89786 1.133,1.08641 1.696,2.49731 1.696,4.22631 v 11.6819 h -3.197 l -0.5,-2.1297 c -1.354,1.7521 -3.272,2.6298 -5.76,2.6298 -1.974,0 -3.507,-0.5332 -4.593,-1.5964 -0.954,-0.9308 -1.431,-2.1198 -1.431,-3.5606 0,-1.6196 0.586,-2.8849 1.765,-3.7957 1.067,-0.8446 2.719,-1.454 4.958,-1.8316 l 4.76,-0.7982 v -0.8314 c 0,-1.0433 -0.345,-1.8183 -1.034,-2.3284 -0.599,-0.467 -1.42,-0.6989 -2.464,-0.6989 -2.063,0 -3.229,0.8446 -3.494,2.5305 z"
       fill="#0f294f"
       id="path26"
       style="fill:#ffffff;fill-opacity:1" />
  </g>
  <defs
     id="defs91">
    <clipPath
       id="clip0_458_6537">
      <rect
         width="315"
         height="50"
         fill="#ffffff"
         id="rect88"
         x="0"
         y="0" />
    </clipPath>
  </defs>
</svg>
